<svg xmlns="http://www.w3.org/2000/svg" version="1.1" xmlns:xlink="http://www.w3.org/1999/xlink" xmlns:svgjs="http://svgjs.dev/svgjs" width="2000" height="2000" viewBox="0 0 2000 2000"><g transform="matrix(1,0,0,1,-0.28443113772425477,-0.28443113772459583)"><svg viewBox="0 0 334 334" data-background-color="#ffffff" preserveAspectRatio="xMidYMid meet" height="2000" width="2000" xmlns="http://www.w3.org/2000/svg" xmlns:xlink="http://www.w3.org/1999/xlink"><g id="tight-bounds" transform="matrix(1,0,0,1,0.04749999999998522,0.04750000000001364)"><svg viewBox="0 0 333.90454557049503 333.90454557049503" height="333.90454557049503" width="333.90454557049503"><g><svg></svg></g><g><svg viewBox="0 0 333.90454557049503 333.90454557049503" height="333.90454557049503" width="333.90454557049503"><g><path d="M0 166.952c0-92.205 74.747-166.952 166.952-166.952 92.205 0 166.952 74.747 166.953 166.952 0 92.205-74.747 166.952-166.953 166.953-92.205 0-166.952-74.747-166.952-166.953zM166.952 316.63c82.665 0 149.677-67.013 149.678-149.678 0-82.665-67.013-149.677-149.678-149.677-82.665 0-149.677 67.013-149.677 149.677 0 82.665 67.013 149.677 149.677 149.678z" data-fill-palette-color="tertiary" fill="#0b82e6" stroke="transparent"></path><ellipse rx="160.27418187383762" ry="160.27418187383762" cx="166.95227278524752" cy="166.95227278524752" fill="#0b82e6" stroke="transparent" stroke-width="0" fill-opacity="1" data-fill-palette-color="tertiary"></ellipse></g><g transform="matrix(1,0,0,1,116.26856038457501,71.17305217166896)"><svg viewBox="0 0 101.36742480134501 191.55844122715712" height="191.55844122715712" width="101.36742480134501"><g><svg viewBox="0 0 101.36742480134501 191.55844122715712" height="191.55844122715712" width="101.36742480134501"><g><svg viewBox="0 0 101.36742480134502 191.55844122715715" height="191.55844122715712" width="101.36742480134501"><g><svg viewBox="0 0 101.36742480134502 191.55844122715715" height="191.55844122715715" width="101.36742480134502"><g id="textblocktransform"><svg viewBox="0 0 101.36742480134502 191.55844122715715" height="191.55844122715715" width="101.36742480134502" id="textblock"><g><svg viewBox="0 0 101.36742480134502 191.55844122715715" height="191.55844122715715" width="101.36742480134502"><g transform="matrix(1,0,0,1,0,0)"><svg width="101.36742480134502" viewBox="1.5 -35 19.5 36.85" height="191.55844122715715" data-palette-color="#ffffff"><path d="M15.3-8.3L15.3-8.3 21-35 8.6-35 7-27.6 10.4-27.5 6.75-10.45Q6.4-8.8 5.85-7.7 5.3-6.6 4.3-6.03 3.3-5.45 1.5-5.45L1.5-5.45 1.75 1.85Q4.7 1.85 7.03 1.07 9.35 0.3 11.03-1.07 12.7-2.45 13.78-4.3 14.85-6.15 15.3-8.3Z" opacity="1" transform="matrix(1,0,0,1,0,0)" fill="#ffffff" class="wordmark-text-0" data-fill-palette-color="quaternary" id="text-0"></path></svg></g></svg></g></svg></g></svg></g><g></g></svg></g></svg></g></svg></g></svg></g><defs></defs></svg><rect width="333.90454557049503" height="333.90454557049503" fill="none" stroke="none" visibility="hidden"></rect></g></svg></g></svg>